<svg width="74" height="36" viewBox="0 0 74 36" fill="none" xmlns="http://www.w3.org/2000/svg">
<g clip-path="url(#clip0_1917_36937)">
<path d="M8.6779 24.1318H2.69584L0.012207 35.8025H3.06423L4.07425 31.4114H5.65028L8.36806 35.8025H11.7104L8.66326 31.1552C11.3664 30.4526 12.2862 29.0036 12.4569 27.4545C12.6277 25.9054 11.7641 24.1294 8.67546 24.1294L8.6779 24.1318ZM9.4098 27.6228C9.28294 28.7645 8.21193 29.4378 6.72617 29.4378H4.53047L5.34532 25.9176H7.66056C8.88771 25.9176 9.52691 26.5177 9.40736 27.6228H9.4098ZM17.2167 24.1343H20.2883L19.5735 27.2325L17.5973 35.7976H14.4916L17.2167 24.1343ZM43.1894 23.4878L43.2114 35.7952H40.2838L40.3155 27.0129L34.0968 35.7952H31.2595L28.6856 26.9641L24.565 35.7952H21.1617L27.2486 22.9853C27.6902 22.1583 28.1172 21.7899 28.9564 21.785C29.5127 21.785 30.1177 22.1046 30.3934 23.0755L33.0502 32.6848L39.9617 22.8633C40.5497 22.0314 41.045 21.7777 41.7281 21.7948C42.46 21.8143 43.1919 22.2949 43.1919 23.4878H43.1894ZM63.8998 30.2331C63.6924 32.1091 65.1196 33.5874 67.6178 33.624C68.8455 33.6582 70.0706 33.4934 71.2456 33.1361L70.6527 35.7C69.6419 35.8876 68.6166 35.9855 67.5885 35.9928C62.675 35.9928 60.3915 33.5533 60.7575 30.1745C61.1722 26.3591 64.5389 23.7927 69.8428 23.7927C70.9691 23.8096 72.0907 23.942 73.19 24.1879L72.6533 26.5372C71.6149 26.2872 70.5497 26.1659 69.4817 26.1762C66.3882 26.1518 64.1779 27.696 63.9022 30.2331H63.8998ZM51.2306 31.4358L54.0874 27.4032L54.9803 31.4358H51.2306ZM56.0245 35.7976H58.9911L56.1514 25.637C55.7805 24.4051 55.0511 24.0806 54.2923 24.1465C53.8166 24.1879 53.3165 24.3904 52.8139 25.1101L45.4461 35.8001H48.4689L49.9668 33.4093H55.4585L56.0294 35.8074L56.0245 35.7976ZM61.243 9.69476C60.6208 9.90699 33.1673 17.5012 32.7647 17.5964C32.492 17.6813 32.2017 17.6927 31.9232 17.6293C31.6448 17.5658 31.388 17.4299 31.1789 17.2353C30.447 16.5693 30.7471 15.6447 30.9545 15.1764C31.1985 14.625 36.4852 3.50326 36.4852 3.50326L15.3797 12.3514C14.4989 12.6588 14.1989 11.9342 14.1989 11.9342C14.1989 11.9342 13.8305 11.1316 14.7917 10.6779L37.9685 0.268452C38.3491 0.0976859 39.0639 -0.238968 39.6202 0.268452C40.1764 0.775873 39.9593 1.54188 39.7885 2.01515C39.7056 2.23958 35.9095 12.7832 35.9095 12.7832C35.9095 12.7832 58.5032 3.08854 59.2351 2.81287C60.6672 2.26886 61.97 2.59088 62.8946 3.66914C63.307 4.16256 63.5944 4.74811 63.7324 5.37618C63.8705 6.00426 63.8551 6.65634 63.6875 7.27719C63.3679 8.36766 62.6628 9.20198 61.2478 9.685L61.243 9.69476Z" fill="#F7052D"/>
</g>
<defs>
<clipPath id="clip0_1917_36937">
<rect width="73.19" height="36" fill="white"/>
</clipPath>
</defs>
</svg>
