<?xml version="1.0" standalone="no"?>
<!DOCTYPE svg PUBLIC "-//W3C//DTD SVG 20010904//EN"
 "http://www.w3.org/TR/2001/REC-SVG-20010904/DTD/svg10.dtd">
<svg version="1.0" xmlns="http://www.w3.org/2000/svg"
 width="114.000000pt" height="121.000000pt" viewBox="0 0 114.000000 121.000000"
 preserveAspectRatio="xMidYMid meet">

<g transform="translate(0.000000,121.000000) scale(0.100000,-0.100000)"
fill="#000000" stroke="none">
<path d="M510 1080 c-24 -16 -187 -68 -295 -94 -135 -34 -139 -39 -130 -171
18 -251 115 -472 272 -615 72 -66 169 -130 198 -130 11 0 48 16 80 35 199 120
336 331 379 584 19 114 21 231 4 254 -8 11 -64 30 -149 51 -75 19 -171 48
-215 65 -82 32 -119 37 -144 21z m143 -119 c45 -15 123 -39 172 -51 50 -13 96
-28 104 -34 18 -14 9 -133 -19 -242 -25 -101 -97 -245 -156 -312 -55 -62 -169
-152 -194 -152 -27 0 -128 79 -191 149 -119 130 -197 345 -187 510 l3 54 135
37 c74 21 153 44 175 53 55 22 66 21 158 -12z"/>
<path d="M650 655 c-63 -63 -119 -115 -124 -115 -5 0 -32 25 -61 55 -28 30
-58 55 -67 55 -22 0 -48 -27 -48 -49 0 -20 161 -181 181 -181 7 0 77 64 156
142 142 141 160 167 131 196 -27 27 -55 11 -168 -103z"/>
</g>
</svg>
