<?xml version="1.0" standalone="no"?>
<!DOCTYPE svg PUBLIC "-//W3C//DTD SVG 20010904//EN"
 "http://www.w3.org/TR/2001/REC-SVG-20010904/DTD/svg10.dtd">
<svg version="1.0" xmlns="http://www.w3.org/2000/svg"
 width="388.000000pt" height="171.000000pt" viewBox="0 0 388.000000 171.000000"
 preserveAspectRatio="xMidYMid meet">

<g transform="translate(0.000000,171.000000) scale(0.100000,-0.100000)"
fill="#000000" stroke="none">
<path d="M607 1269 c-32 -19 -210 -76 -298 -95 -58 -12 -91 -25 -107 -42 -23
-22 -24 -27 -17 -125 18 -253 115 -473 272 -617 72 -66 169 -130 197 -130 35
0 144 71 216 140 125 121 212 291 244 479 19 114 21 231 4 254 -8 11 -57 28
-128 46 -63 15 -155 43 -205 61 -103 37 -152 45 -178 29z m146 -118 c45 -15
123 -39 172 -51 50 -13 96 -28 104 -34 10 -8 12 -28 7 -87 -17 -204 -108 -407
-232 -520 -54 -48 -129 -99 -147 -99 -23 0 -127 81 -185 144 -87 96 -151 227
-178 364 -18 93 -19 201 -1 206 6 2 66 19 132 37 66 18 140 41 165 51 60 23
69 22 163 -11z"/>
<path d="M750 845 c-63 -63 -120 -115 -126 -115 -6 0 -30 22 -52 49 -23 27
-51 53 -63 56 -24 8 -59 -19 -59 -45 0 -19 161 -180 180 -180 20 0 290 271
297 298 3 12 0 29 -7 37 -27 32 -54 16 -170 -100z"/>
<path d="M2862 1134 c-21 -37 16 -78 60 -66 23 6 34 48 18 67 -17 20 -67 19
-78 -1z"/>
<path d="M3085 1106 c-14 -14 -27 -42 -31 -65 -6 -35 -10 -41 -30 -41 -19 0
-24 -5 -24 -24 0 -19 6 -25 28 -28 31 -3 29 3 31 -140 l1 -108 35 0 35 0 0
125 0 125 40 0 c36 0 40 3 40 25 0 23 -4 25 -40 25 -35 0 -40 3 -40 23 0 33
19 47 62 47 21 0 38 3 38 8 0 4 3 17 6 30 6 21 4 22 -60 22 -58 0 -70 -3 -91
-24z"/>
<path d="M1353 1100 c-49 -29 -67 -63 -60 -113 7 -53 44 -88 118 -112 69 -22
79 -31 79 -66 0 -49 -72 -65 -147 -34 -46 19 -43 21 -43 -20 0 -39 13 -49 78
-60 62 -10 119 3 157 37 43 37 53 83 30 132 -17 35 -30 43 -142 91 -24 10 -45
26 -48 36 -10 29 12 58 50 65 31 5 52 1 108 -21 14 -6 17 -1 17 29 0 30 -5 38
-26 46 -44 17 -136 12 -171 -10z"/>
<path d="M2520 910 l0 -211 143 3 142 3 0 30 0 30 -102 -3 -103 -4 0 181 0
181 -40 0 -40 0 0 -210z"/>
<path d="M1637 1004 c-11 -11 -8 -204 4 -247 17 -64 99 -84 167 -41 19 13 22
13 22 -1 0 -11 10 -15 35 -15 l35 0 0 156 0 155 -37 -3 -38 -3 -3 -110 c-2
-89 -6 -112 -19 -122 -22 -17 -68 -17 -81 0 -6 7 -13 62 -14 123 l-3 109 -30
3 c-17 2 -34 0 -38 -4z"/>
<path d="M1977 1003 c-4 -3 -7 -73 -7 -155 l0 -148 40 0 40 0 0 105 c0 117 5
125 74 125 35 0 36 1 36 40 0 37 -2 40 -29 40 -15 0 -40 -9 -54 -20 -14 -11
-28 -20 -31 -20 -3 0 -6 9 -6 20 0 15 -7 20 -28 20 -16 0 -32 -3 -35 -7z"/>
<path d="M2237 971 c-41 -38 -42 -41 -45 -113 -2 -60 1 -79 18 -106 28 -45 80
-66 152 -59 70 6 78 11 78 46 l0 28 -55 -10 c-49 -9 -59 -8 -82 9 -14 11 -30
30 -34 42 -8 22 -7 22 85 22 92 0 94 0 100 25 10 40 -11 101 -45 129 -24 20
-41 26 -80 26 -44 0 -55 -5 -92 -39z m133 -31 c11 -11 20 -29 20 -40 0 -18 -7
-20 -65 -20 l-65 0 11 28 c19 53 64 67 99 32z"/>
<path d="M2870 855 l0 -155 35 0 35 0 0 155 0 155 -35 0 -35 0 0 -155z"/>
<path d="M3300 984 c-43 -37 -60 -74 -60 -134 0 -112 71 -169 191 -154 61 8
72 15 64 46 -6 25 -9 25 -71 20 -68 -5 -89 4 -104 43 -7 19 -3 20 89 25 l96 5
3 30 c5 44 -15 101 -45 124 -40 32 -122 29 -163 -5z m124 -46 c28 -40 21 -48
-44 -48 -53 0 -60 2 -60 19 0 24 36 51 67 51 12 0 29 -10 37 -22z"/>
<path d="M3399 503 c-1 -16 0 -43 1 -61 2 -39 -25 -56 -46 -28 -14 20 -9 45
14 64 9 6 11 12 5 12 -19 0 -43 -30 -43 -54 0 -30 20 -47 54 -44 25 2 26 4 26
70 0 37 -2 68 -5 68 -3 0 -5 -12 -6 -27z"/>
<path d="M1291 513 c0 -4 4 -17 9 -28 8 -19 9 -19 9 2 1 12 -3 25 -9 28 -5 3
-10 3 -9 -2z"/>
<path d="M1433 505 c-3 -9 -3 -18 -1 -21 3 -3 8 4 11 16 6 23 -1 27 -10 5z"/>
<path d="M1910 500 c-41 -41 -9 -115 48 -108 22 2 28 9 30 36 3 27 0 32 -19
32 -22 0 -22 -1 -4 -14 23 -16 14 -46 -14 -46 -27 0 -55 43 -46 70 8 24 41 44
61 36 8 -3 14 -1 14 4 0 18 -50 10 -70 -10z"/>
<path d="M2159 506 c-2 -10 -2 -41 -1 -67 3 -43 7 -49 25 -49 20 1 20 2 5 11
-21 12 -25 79 -5 79 8 0 9 3 1 8 -6 4 -13 14 -16 22 -4 12 -6 11 -9 -4z"/>
<path d="M2280 511 c0 -6 4 -13 10 -16 6 -3 7 1 4 9 -7 18 -14 21 -14 7z"/>
<path d="M2343 485 c-15 -31 -18 -33 -30 -17 -14 16 -14 15 -7 -3 4 -11 8 -32
8 -47 1 -35 16 -37 16 -3 0 14 9 44 20 65 11 22 18 40 15 40 -3 0 -13 -16 -22
-35z"/>
<path d="M2713 510 c-22 -9 -28 -29 -24 -75 2 -24 28 -45 55 -45 16 1 13 4
-11 15 -28 12 -33 19 -33 49 0 38 25 61 54 50 9 -3 16 -1 16 5 0 13 -26 13
-57 1z"/>
<path d="M1350 458 l-13 -53 -13 30 c-15 35 -19 18 -4 -20 13 -34 26 -25 35
22 4 21 12 41 18 45 9 5 9 10 1 18 -9 9 -15 -2 -24 -42z"/>
<path d="M1615 470 c12 -40 26 -59 19 -25 -4 17 -11 35 -16 40 -7 7 -8 1 -3
-15z"/>
<path d="M1677 483 c-2 -5 -7 -21 -11 -38 -4 -16 -13 -33 -19 -37 -6 -4 -8
-10 -4 -14 10 -11 17 -1 32 50 13 41 13 59 2 39z"/>
<path d="M2920 485 c0 -5 5 -17 10 -25 5 -8 10 -10 10 -5 0 6 -5 17 -10 25 -5
8 -10 11 -10 5z"/>
<path d="M1477 473 c-11 -11 -8 -58 5 -71 7 -7 21 -12 33 -11 17 1 16 2 -5 8
-21 6 -25 13 -25 44 0 20 0 37 -1 37 0 0 -4 -3 -7 -7z"/>
<path d="M1727 473 c-12 -12 -7 -60 8 -73 8 -6 22 -10 32 -7 14 4 13 5 -4 6
-24 1 -26 6 -25 54 1 29 -1 31 -11 20z"/>
<path d="M2034 466 c-16 -43 20 -91 53 -70 24 15 34 49 20 68 -10 14 -12 10
-12 -21 0 -31 -4 -39 -22 -41 -24 -4 -38 25 -28 58 7 23 -3 28 -11 6z"/>
<path d="M2394 466 c-17 -44 20 -91 54 -70 18 12 29 61 15 75 -4 4 -8 -9 -8
-29 0 -33 -3 -37 -25 -37 -22 0 -25 4 -25 38 0 40 -3 45 -11 23z"/>
<path d="M2512 450 c-2 -47 7 -59 46 -58 31 1 32 2 31 47 0 39 -2 42 -10 23
-5 -13 -7 -27 -4 -32 7 -12 -23 -33 -39 -27 -8 3 -16 23 -19 44 l-4 38 -1 -35z"/>
<path d="M2812 468 c-27 -27 -1 -78 39 -78 28 0 46 43 31 72 l-12 23 6 -22 c9
-37 -5 -65 -29 -61 -18 2 -22 10 -22 41 0 20 0 37 0 37 -1 0 -6 -5 -13 -12z"/>
<path d="M3037 473 c-11 -11 -8 -58 5 -71 7 -7 21 -12 33 -11 17 1 16 2 -5 8
-21 6 -25 13 -24 44 0 40 0 40 -9 30z"/>
<path d="M3150 465 c0 -8 2 -15 4 -15 2 0 6 7 10 15 3 8 1 15 -4 15 -6 0 -10
-7 -10 -15z"/>
<path d="M3224 456 c-9 -36 12 -66 44 -65 27 2 27 2 2 6 -31 6 -38 17 -34 54
4 35 -3 38 -12 5z"/>
<path d="M3283 462 c0 -12 5 -22 9 -22 11 0 10 12 -2 30 -7 12 -9 10 -7 -8z"/>
<path d="M1381 454 c0 -11 3 -14 6 -6 3 7 2 16 -1 19 -3 4 -6 -2 -5 -13z"/>
<path d="M2969 438 c-7 -18 -14 -36 -17 -40 -2 -5 0 -8 5 -8 10 0 36 71 29 78
-2 1 -10 -12 -17 -30z"/>
<path d="M1410 424 c0 -16 -2 -17 -10 -4 -8 12 -10 11 -10 -7 0 -13 4 -23 9
-23 12 0 25 39 17 47 -3 4 -6 -2 -6 -13z"/>
<path d="M3152 415 c0 -16 2 -22 5 -12 2 9 2 23 0 30 -3 6 -5 -1 -5 -18z"/>
</g>
</svg>
